# xmcd CD database file
#
# Track frame offsets:
#	150
#	16237
#	28132
#	42719
#	58238
#	74003
#	92096
#	118275
#	150315
#	165092
#	191056
#	214309
#	225536
#	246587
#	263882
#	278344
#	299081
#	317882
#
# Disc length: 4422 seconds
#
# Revision: 0
# Processed by: cddbd v1.5.2PL0 Copyright (c) Steve Scherf et al.
# Submitted via: CDex 1.51
#
DISCID=14114412
DTITLE=Schweizer Armeespiel - 50 Jahre Schweizer Armeespiel - Entertainment
DYEAR=2007
DGENRE=Country
TTITLE0=Concert Band Sas - Hptm Christoph Walter - Flyin' to the Skies
TTITLE1=Concert Band Sas - Hptm Christoph Walter - Cold Sweat
TTITLE2=Concert Band Sas - Hptm Christoph Walter - A Taste of Honey
TTITLE3=Concert Band Sas - Hptm Christoph Walter - Think
TTITLE4=Concert Band Sas - Hptm Christoph Walter - You don't bring me flowers anymore
TTITLE5=Concert Band Sas - Hptm Christoph Walter - Don't let the sun go down on me
TTITLE6=Concert Band Sas - Hptm Christoph Walter - My Way
TTITLE7=Swiss Army Big Band - Fach Of Pepe Lienhard - Hazy Osterwald Medley
TTITLE8=Swiss Army Big Band - Fach Of Pepe Lienhard - Hard Sock Dance
TTITLE9=Swiss Army Big Band - Fach Of Pepe Lienhard - Georgia on my mind
TTITLE10=Swiss Army Big Band - Fach Of Pepe Lienhard - Shiny Stockings
TTITLE11=Swiss Army Big Band - Fach Of Pepe Lienhard - Mañana
TTITLE12=Swiss Army Big Band - Fach Of Pepe Lienhard - Quintessence
TTITLE13=Swiss Army Big Band - Fach Of Pepe Lienhard - Cute
TTITLE14=Swiss Army Gala Band - Oblt Gilbert Tinner - Alpine Rock
TTITLE15=Swiss Army Gala Band - Oblt Gilbert Tinner - Children of Sanchez
TTITLE16=Swiss Army Gala Band - Oblt Gilbert Tinner - Just the way you are
TTITLE17=Swiss Army Gala Band - Oblt Gilbert Tinner - Once I loved
EXTD=YEAR: 2007
EXTT0=
EXTT1=
EXTT2=
EXTT3=
EXTT4=
EXTT5=
EXTT6=
EXTT7=
EXTT8=
EXTT9=
EXTT10=
EXTT11=
EXTT12=
EXTT13=
EXTT14=
EXTT15=
EXTT16=
EXTT17=
PLAYORDER=
